HIERARCHY
ROOT Hips
{
	OFFSET 0.000000 87.230942 0.000000
	CHANNELS 6 Xposition Yposition Zposition Xrotation Yrotation Zrotation
	JOINT Pelvis
	{
		OFFSET 0.000000 0.000000 0.000000
		CHANNELS 3 Xrotation Yrotation Zrotation
		JOINT LeftUpLeg
		{
			OFFSET 12.017000 -9.376404 -2.439400
			CHANNELS 3 Xrotation Yrotation Zrotation
			JOINT LeftLeg
			{
				OFFSET -0.007312 -32.846973 2.110600
				CHANNELS 3 Xrotation Yrotation Zrotation
				JOINT LeftFoot
				{
					OFFSET 0.007312 -32.065170 -0.570400
					CHANNELS 3 Xrotation Yrotation Zrotation
					JOINT LeftToeBase
					{
						OFFSET 0.728300 -11.045900 13.180700
						CHANNELS 3 Xrotation Yrotation Zrotation
						End Site
						{
							OFFSET 0.000000 17.212589 0.000000
						}
					}
				}
				JOINT LeftPantLeg
				{
					OFFSET 0.002788 -16.709013 -3.143600
					CHANNELS 3 Xrotation Yrotation Zrotation
					End Site
					{
						OFFSET -0.605125 24.528742 0.000000
					}
				}
			}
			JOINT Left_Butt
			{
				OFFSET -6.630234 1.326584 -3.183700
				CHANNELS 3 Xrotation Yrotation Zrotation
				End Site
				{
					OFFSET -0.498041 20.188049 0.000000
				}
			}
		}
		JOINT RightUpLeg
		{
			OFFSET -11.717000 -9.376404 -2.439400
			CHANNELS 3 Xrotation Yrotation Zrotation
			JOINT RightLeg
			{
				OFFSET -0.003241 -32.846912 2.110600
				CHANNELS 3 Xrotation Yrotation Zrotation
				JOINT RightFoot
				{
					OFFSET 0.003241 -32.065136 -0.570500
					CHANNELS 3 Xrotation Yrotation Zrotation
					JOINT RightToeBase
					{
						OFFSET -0.728300 -11.045901 13.180700
						CHANNELS 3 Xrotation Yrotation Zrotation
						End Site
						{
							OFFSET 0.000000 17.212593 0.000000
						}
					}
				}
				JOINT RightPantLeg
				{
					OFFSET 0.008142 -16.708982 -3.143700
					CHANNELS 3 Xrotation Yrotation Zrotation
					End Site
					{
						OFFSET 0.605088 24.528715 0.000000
					}
				}
			}
			JOINT Right_Butt
			{
				OFFSET 6.630732 1.326584 -3.183700
				CHANNELS 3 Xrotation Yrotation Zrotation
				End Site
				{
					OFFSET 0.498015 20.188240 0.000000
				}
			}
		}
	}
	JOINT Spine
	{
		OFFSET -0.062400 7.848404 3.918300
		CHANNELS 3 Xrotation Yrotation Zrotation
		JOINT Spine1
		{
			OFFSET -0.072800 11.422302 0.713400
			CHANNELS 3 Xrotation Yrotation Zrotation
			JOINT Spine2
			{
				OFFSET -0.083200 13.054001 -1.931600
				CHANNELS 3 Xrotation Yrotation Zrotation
				JOINT Neck
				{
					OFFSET -0.092200 14.121796 -5.138800
					CHANNELS 3 Xrotation Yrotation Zrotation
					JOINT Head
					{
						OFFSET 0.000200 10.447403 -0.842000
						CHANNELS 3 Xrotation Yrotation Zrotation
						JOINT Visor
						{
							OFFSET 0.457100 25.671204 16.550400
							CHANNELS 3 Xrotation Yrotation Zrotation
							End Site
							{
								OFFSET 0.000000 26.061493 0.000000
							}
						}
						JOINT HairMidA
						{
							OFFSET 0.459400 31.585403 8.437400
							CHANNELS 3 Xrotation Yrotation Zrotation
							End Site
							{
								OFFSET 0.000000 26.061493 0.000000
							}
						}
						JOINT HairMidB
						{
							OFFSET 0.464000 33.309204 -8.389700
							CHANNELS 3 Xrotation Yrotation Zrotation
							End Site
							{
								OFFSET 0.000000 26.061493 0.000000
							}
						}
						JOINT HairMidC
						{
							OFFSET 0.466600 27.991196 -17.375099
							CHANNELS 3 Xrotation Yrotation Zrotation
							End Site
							{
								OFFSET 0.000000 26.061493 0.000000
							}
						}
						JOINT HairMidD
						{
							OFFSET 0.467700 17.888092 -21.169500
							CHANNELS 3 Xrotation Yrotation Zrotation
							End Site
							{
								OFFSET 0.000000 26.061493 0.000000
							}
						}
						JOINT HairMidE
						{
							OFFSET 5.325700 3.514603 -14.369699
							CHANNELS 3 Xrotation Yrotation Zrotation
							End Site
							{
								OFFSET 0.000000 26.061493 0.000000
							}
						}
						JOINT HairMidF
						{
							OFFSET -4.394100 3.514603 -14.372400
							CHANNELS 3 Xrotation Yrotation Zrotation
							End Site
							{
								OFFSET 0.000000 26.061493 0.000000
							}
						}
						JOINT HairLeftA
						{
							OFFSET 15.319900 25.746506 2.623300
							CHANNELS 3 Xrotation Yrotation Zrotation
							End Site
							{
								OFFSET 0.000000 26.061493 0.000000
							}
						}
						JOINT HairLeftB
						{
							OFFSET 12.619500 29.289398 -8.731499
							CHANNELS 3 Xrotation Yrotation Zrotation
							End Site
							{
								OFFSET 0.000000 26.061493 0.000000
							}
						}
						JOINT HairLeftC
						{
							OFFSET 15.714800 15.959900 2.909800
							CHANNELS 3 Xrotation Yrotation Zrotation
							End Site
							{
								OFFSET 0.000000 26.061493 0.000000
							}
						}
						JOINT HairLeftD
						{
							OFFSET 16.101700 18.437408 -7.553200
							CHANNELS 3 Xrotation Yrotation Zrotation
							End Site
							{
								OFFSET 0.000000 26.061493 0.000000
							}
						}
						JOINT HairLeftE
						{
							OFFSET 9.731900 17.915009 -18.316799
							CHANNELS 3 Xrotation Yrotation Zrotation
							End Site
							{
								OFFSET 0.000000 26.061493 0.000000
							}
						}
						JOINT HairLeftF
						{
							OFFSET 11.204300 4.953598 -9.668100
							CHANNELS 3 Xrotation Yrotation Zrotation
							End Site
							{
								OFFSET 0.000000 26.061493 0.000000
							}
						}
						JOINT HairRightA
						{
							OFFSET -14.397900 25.746307 2.615100
							CHANNELS 3 Xrotation Yrotation Zrotation
							End Site
							{
								OFFSET 0.000000 26.061493 0.000000
							}
						}
						JOINT HairRightB
						{
							OFFSET -11.691200 29.289200 -8.738199
							CHANNELS 3 Xrotation Yrotation Zrotation
							End Site
							{
								OFFSET 0.000000 26.061493 0.000000
							}
						}
						JOINT HairRightC
						{
							OFFSET -14.792900 15.959702 2.901400
							CHANNELS 3 Xrotation Yrotation Zrotation
							End Site
							{
								OFFSET 0.000000 26.061493 0.000000
							}
						}
						JOINT HairRightD
						{
							OFFSET -15.174000 18.437195 -7.561900
							CHANNELS 3 Xrotation Yrotation Zrotation
							End Site
							{
								OFFSET 0.000000 26.061493 0.000000
							}
						}
						JOINT HairRightE
						{
							OFFSET -8.798200 17.914902 -18.322001
							CHANNELS 3 Xrotation Yrotation Zrotation
							End Site
							{
								OFFSET 0.000000 26.061493 0.000000
							}
						}
						JOINT HairRightF
						{
							OFFSET -10.275200 4.953506 -9.674099
							CHANNELS 3 Xrotation Yrotation Zrotation
							End Site
							{
								OFFSET 0.000000 26.061493 0.000000
							}
						}
					}
				}
				JOINT LeftShoulder
				{
					OFFSET 5.133500 7.341202 -1.867600
					CHANNELS 3 Xrotation Yrotation Zrotation
					JOINT LeftArm
					{
						OFFSET 8.072663 0.936867 -2.176600
						CHANNELS 3 Xrotation Yrotation Zrotation
						JOINT LeftForeArm
						{
							OFFSET 31.271999 0.000000 0.000000
							CHANNELS 3 Xrotation Yrotation Zrotation
							JOINT LeftHand
							{
								OFFSET 31.771030 0.000000 0.000000
								CHANNELS 3 Xrotation Yrotation Zrotation
								JOINT LeftHandThumb1
								{
									OFFSET 2.886520 -2.557846 4.416640
									CHANNELS 3 Xrotation Yrotation Zrotation
									JOINT LeftHandThumb2
									{
										OFFSET 2.371025 -1.368912 1.368911
										CHANNELS 3 Xrotation Yrotation Zrotation
										JOINT LeftHandThumb3
										{
											OFFSET 2.243378 -1.295212 1.295213
											CHANNELS 3 Xrotation Yrotation Zrotation
											End Site
											{
												OFFSET -0.332611 2.876945 0.020015
											}
										}
									}
								}
								JOINT LeftHandIndex1
								{
									OFFSET 8.568985 -0.641945 3.119977
									CHANNELS 3 Xrotation Yrotation Zrotation
									JOINT LeftHandIndex2
									{
										OFFSET 3.348503 0.000000 0.000000
										CHANNELS 3 Xrotation Yrotation Zrotation
										JOINT LeftHandIndex3
										{
											OFFSET 3.314552 0.000000 0.000000
											CHANNELS 3 Xrotation Yrotation Zrotation
											End Site
											{
												OFFSET -1.032898 3.075485 0.678796
											}
										}
									}
								}
								JOINT LeftHandMiddle1
								{
									OFFSET 8.124603 0.000000 0.000000
									CHANNELS 3 Xrotation Yrotation Zrotation
									JOINT LeftHandMiddle2
									{
										OFFSET 4.166275 0.000000 0.000000
										CHANNELS 3 Xrotation Yrotation Zrotation
										JOINT LeftHandMiddle3
										{
											OFFSET 3.018135 0.000000 0.000000
											CHANNELS 3 Xrotation Yrotation Zrotation
											End Site
											{
												OFFSET -1.032700 2.767982 0.617226
											}
										}
									}
								}
								JOINT LeftHandRing1
								{
									OFFSET 8.571686 -0.031357 -2.884048
									CHANNELS 3 Xrotation Yrotation Zrotation
									JOINT LeftHandRing2
									{
										OFFSET 3.671181 0.000000 0.000000
										CHANNELS 3 Xrotation Yrotation Zrotation
										JOINT LeftHandRing3
										{
											OFFSET 2.728851 0.000000 0.000000
											CHANNELS 3 Xrotation Yrotation Zrotation
											End Site
											{
												OFFSET -0.815796 2.539223 0.577389
											}
										}
									}
								}
								JOINT LeftHandPinky1
								{
									OFFSET 7.854515 -0.675232 -5.213020
									CHANNELS 3 Xrotation Yrotation Zrotation
									JOINT LeftHandPinky2
									{
										OFFSET 3.068596 0.000000 0.000000
										CHANNELS 3 Xrotation Yrotation Zrotation
										JOINT LeftHandPinky3
										{
											OFFSET 2.396042 0.000000 0.000000
											CHANNELS 3 Xrotation Yrotation Zrotation
											End Site
											{
												OFFSET -0.524597 2.267998 0.567429
											}
										}
									}
								}
							}
							JOINT LeftSleeve
							{
								OFFSET 19.684509 -0.200119 0.476146
								CHANNELS 3 Xrotation Yrotation Zrotation
								End Site
								{
									OFFSET -0.031017 25.731133 -0.002868
								}
							}
						}
					}
				}
				JOINT RightShoulder
				{
					OFFSET -4.395900 7.341202 -1.870200
					CHANNELS 3 Xrotation Yrotation Zrotation
					JOINT RightArm
					{
						OFFSET -8.071453 0.936867 -2.181100
						CHANNELS 3 Xrotation Yrotation Zrotation
						JOINT RightForeArm
						{
							OFFSET -31.272011 0.000000 0.000000
							CHANNELS 3 Xrotation Yrotation Zrotation
							JOINT RightHand
							{
								OFFSET -31.771019 0.000000 0.000000
								CHANNELS 3 Xrotation Yrotation Zrotation
								JOINT RightHandThumb1
								{
									OFFSET -2.886520 -2.557808 4.416626
									CHANNELS 3 Xrotation Yrotation Zrotation
									JOINT RightHandThumb2
									{
										OFFSET -2.371056 -1.368927 1.368928
										CHANNELS 3 Xrotation Yrotation Zrotation
										JOINT RightHandThumb3
										{
											OFFSET -2.243362 -1.295204 1.295206
											CHANNELS 3 Xrotation Yrotation Zrotation
											End Site
											{
												OFFSET 0.332642 2.876938 0.020047
											}
										}
									}
								}
								JOINT RightHandIndex1
								{
									OFFSET -8.568993 -0.641953 3.120017
									CHANNELS 3 Xrotation Yrotation Zrotation
									JOINT RightHandIndex2
									{
										OFFSET -3.348518 0.000000 0.000000
										CHANNELS 3 Xrotation Yrotation Zrotation
										JOINT RightHandIndex3
										{
											OFFSET -3.314552 0.000000 0.000000
											CHANNELS 3 Xrotation Yrotation Zrotation
											End Site
											{
												OFFSET 1.032898 3.075478 0.678804
											}
										}
									}
								}
								JOINT RightHandMiddle1
								{
									OFFSET -8.124588 0.000000 0.000000
									CHANNELS 3 Xrotation Yrotation Zrotation
									JOINT RightHandMiddle2
									{
										OFFSET -4.166275 0.000000 0.000000
										CHANNELS 3 Xrotation Yrotation Zrotation
										JOINT RightHandMiddle3
										{
											OFFSET -3.018097 0.000000 0.000000
											CHANNELS 3 Xrotation Yrotation Zrotation
											End Site
											{
												OFFSET 1.032700 2.767937 0.617197
											}
										}
									}
								}
								JOINT RightHandRing1
								{
									OFFSET -8.571747 -0.031349 -2.884061
									CHANNELS 3 Xrotation Yrotation Zrotation
									JOINT RightHandRing2
									{
										OFFSET -3.671204 0.000000 0.000000
										CHANNELS 3 Xrotation Yrotation Zrotation
										JOINT RightHandRing3
										{
											OFFSET -2.728874 0.000000 0.000000
											CHANNELS 3 Xrotation Yrotation Zrotation
											End Site
											{
												OFFSET 0.815804 2.539261 0.577413
											}
										}
									}
								}
								JOINT RightHandPinky1
								{
									OFFSET -7.854561 -0.675247 -5.212970
									CHANNELS 3 Xrotation Yrotation Zrotation
									JOINT RightHandPinky2
									{
										OFFSET -3.068550 0.000000 0.000000
										CHANNELS 3 Xrotation Yrotation Zrotation
										JOINT RightHandPinky3
										{
											OFFSET -2.395981 0.000000 0.000000
											CHANNELS 3 Xrotation Yrotation Zrotation
											End Site
											{
												OFFSET 0.524605 2.267952 0.567413
											}
										}
									}
								}
							}
							JOINT RightSleeve
							{
								OFFSET -19.684753 -0.200165 0.476065
								CHANNELS 3 Xrotation Yrotation Zrotation
								End Site
								{
									OFFSET 0.031342 25.731255 -0.002917
								}
							}
						}
					}
				}
				JOINT Hood
				{
					OFFSET 0.369700 14.447800 -5.317800
					CHANNELS 3 Xrotation Yrotation Zrotation
					JOINT Hood1
					{
						OFFSET 0.001700 -5.553802 -5.895100
						CHANNELS 3 Xrotation Yrotation Zrotation
						JOINT Hood2
						{
							OFFSET -0.000200 -8.380501 0.763600
							CHANNELS 3 Xrotation Yrotation Zrotation
							End Site
							{
								OFFSET 0.000000 8.415215 0.000000
							}
						}
					}
				}
				JOINT Left_Breast
				{
					OFFSET 5.682500 3.120102 3.188800
					CHANNELS 3 Xrotation Yrotation Zrotation
					End Site
					{
						OFFSET 0.000000 10.528564 0.000000
					}
				}
				JOINT Right_Breast
				{
					OFFSET -4.947600 3.120102 3.185900
					CHANNELS 3 Xrotation Yrotation Zrotation
					End Site
					{
						OFFSET 0.000000 10.528564 0.000000
					}
				}
				JOINT Whistle
				{
					OFFSET 0.368200 11.471298 0.095400
					CHANNELS 3 Xrotation Yrotation Zrotation
					JOINT Whistle1
					{
						OFFSET -0.002000 -6.349899 7.479800
						CHANNELS 3 Xrotation Yrotation Zrotation
						JOINT Whistle2
						{
							OFFSET -0.001300 -8.217598 4.717600
							CHANNELS 3 Xrotation Yrotation Zrotation
							End Site
							{
								OFFSET 0.000000 9.475479 0.000000
							}
						}
					}
				}
			}
		}
		JOINT Belly
		{
			OFFSET 0.212400 1.593002 3.163700
			CHANNELS 3 Xrotation Yrotation Zrotation
			End Site
			{
				OFFSET 0.000000 7.496635 0.000000
			}
		}
	}
	JOINT FitGrandmaFacialAnim_Joint
	{
		OFFSET 1.150000 -86.211197 -1.220100
		CHANNELS 3 Xrotation Yrotation Zrotation
		End Site
		{
			OFFSET 0.000000 31.666618 0.000000
		}
	}
}
MOTION
Frames: 4
Frame Time: 0.016667
-2.483346 76.986214 0.995857 3.011901 -58.236126 6.473024 -0.000000 0.000001 -0.000000 -31.699673 10.715690 25.373601 44.302769 -9.071892 -10.059897 -14.570726 -2.364583 -8.879839 -0.000000 0.000001 -0.000000 -0.000002 0.000005 -0.000001 -0.000002 0.000001 -0.000001 -29.501243 -9.417821 -26.774599 50.832856 3.539774 -7.809466 -25.432821 1.445537 21.749131 -0.000000 0.000002 0.000000 -0.000002 -0.000001 0.000000 0.000001 0.000001 0.000000 11.191402 0.108719 -2.692112 8.434586 0.027711 -5.592321 8.457058 0.027847 -5.591867 -21.555703 25.063295 12.062589 -0.293971 25.465860 -3.208980 0.000000 0.000000 0.000001 0.000000 0.000000 0.000001 0.000000 0.000000 0.000001 0.000000 0.000000 0.000001 0.000000 0.000000 0.000001 0.000000 0.000000 0.000001 0.000000 0.000000 0.000001 0.000000 0.000000 0.000001 0.000000 0.000000 0.000001 0.000000 0.000000 0.000001 0.000000 0.000000 0.000001 0.000000 0.000000 0.000001 0.000000 0.000000 0.000001 0.000000 0.000000 0.000001 0.000000 0.000000 0.000001 0.000000 0.000000 0.000001 0.000000 0.000000 0.000001 0.000000 0.000000 0.000001 0.000000 0.000000 0.000001 -6.221664 -11.503838 -4.023812 -23.062122 9.568696 -36.639648 0.046157 -43.169439 -0.011159 22.743721 -5.685708 15.979238 -1.060990 -7.956207 8.492265 2.373403 19.986107 -2.038338 0.000001 0.000002 -0.000001 13.340874 -1.006671 10.682272 -0.163443 0.317203 -31.105610 0.000001 0.000001 0.000001 8.500037 -0.329633 -0.915285 0.231513 0.661173 -29.901841 0.000002 -0.000001 -0.000000 6.121108 3.156131 -16.211131 0.046242 0.321049 -30.125465 0.000000 0.000000 0.000000 -5.637176 7.705223 -13.879852 0.225729 0.277876 -46.588369 -0.000002 0.000002 -0.000002 -0.000000 -0.000001 -0.000000 -5.488243 10.658275 2.466539 -41.473793 -26.755651 30.079081 24.955305 111.863090 -23.308302 -8.702512 12.422957 -9.801963 0.262731 10.061701 -10.891926 1.381147 -17.410702 3.018939 0.000000 -0.000001 -0.000001 19.443609 11.174419 -13.340180 -0.109207 -0.315761 18.035659 -0.000000 -0.000000 -0.000000 4.320486 2.436943 -4.811720 0.344833 -0.463959 26.890301 0.000001 -0.000001 -0.000007 -7.011544 -10.695713 5.718761 0.110913 -0.095445 26.155839 -0.000002 -0.000003 -0.000001 -19.433548 -20.238202 5.987839 0.209898 -0.086852 36.844622 0.000003 -0.000001 0.000001 -0.000001 -0.000000 0.000001 -0.000001 -0.000001 -0.000000 -0.000001 -0.000001 -0.000000 -0.000001 -0.000001 -0.000000 -0.000001 -0.000001 -0.000000 -0.000001 -0.000001 -0.000000 -0.000001 -0.000001 -0.000003 -0.000001 -0.000003 -0.000000 -0.000001 -0.000003 -0.000000 0.000000 0.000001 -0.000001 -0.000000 0.000001 -0.000000 
-2.471750 76.978035 0.983166 3.036534 -58.210308 6.455704 -0.000000 -0.000001 0.000000 -31.782776 10.703175 25.425763 44.333945 -9.129311 -10.046289 -14.555249 -2.360594 -8.873392 0.000000 0.000000 -0.000000 -0.000000 0.000001 -0.000001 -0.000001 0.000002 -0.000000 -29.510433 -9.403623 -26.731515 50.855563 3.516869 -7.791074 -25.446184 1.427983 21.798221 0.000000 0.000000 -0.000000 -0.000003 0.000000 0.000001 -0.000001 0.000001 -0.000001 11.154597 0.125402 -2.648751 8.361915 0.067351 -5.504504 8.384391 0.067487 -5.504033 -20.955333 25.198839 11.976187 -0.203327 25.677148 -3.208815 0.000001 0.000001 -0.000000 0.000001 0.000001 -0.000000 0.000001 0.000001 -0.000000 0.000001 0.000001 -0.000000 0.000001 0.000001 -0.000000 0.000001 0.000001 -0.000000 0.000001 0.000001 -0.000000 0.000001 0.000001 -0.000000 0.000001 0.000001 -0.000000 0.000001 0.000001 -0.000000 0.000001 0.000001 -0.000000 0.000001 0.000001 -0.000000 0.000001 0.000001 -0.000000 0.000001 0.000001 -0.000000 0.000001 0.000001 -0.000000 0.000001 0.000001 -0.000000 0.000001 0.000001 -0.000000 0.000001 0.000001 -0.000000 0.000001 0.000001 -0.000000 -5.897223 -11.434704 -4.094850 -23.105792 9.541861 -36.578159 -0.430871 -43.369109 0.211646 22.768263 -5.683122 16.086400 -0.879763 -7.813334 8.278610 2.373399 19.986107 -2.038337 0.000000 -0.000001 0.000001 13.334322 -1.036142 10.359189 -0.182383 0.317277 -31.248327 -0.000000 -0.000001 -0.000003 8.499508 -0.328329 -1.009024 0.251430 0.631768 -29.985989 -0.000001 0.000001 0.000002 6.121503 3.146037 -16.098242 0.080322 0.300963 -30.077179 0.000001 0.000000 -0.000003 -5.734531 7.618904 -13.497798 0.245204 0.256982 -46.515330 -0.000001 -0.000000 -0.000000 0.000002 -0.000002 -0.000001 -5.087704 10.716892 2.386531 -41.616708 -26.593128 29.801413 27.048676 111.876183 -25.310934 -8.426413 11.265939 -10.149969 0.161855 10.414141 -10.760825 1.389866 -17.409821 3.034353 0.000001 -0.000003 -0.000001 19.555192 10.955336 -14.215802 -0.109614 -0.315395 17.606201 0.000000 -0.000002 -0.000001 4.375306 2.490907 -5.767853 0.342244 -0.462190 26.411518 0.000003 0.000004 0.000001 -7.223214 -10.390290 4.582353 0.110957 -0.091265 25.535023 -0.000001 -0.000003 0.000002 -19.709068 -19.569336 4.721551 0.207410 -0.083902 36.069290 -0.000006 -0.000000 -0.000001 -0.000000 -0.000001 0.000001 -0.000001 -0.000001 -0.000000 -0.000001 -0.000001 -0.000000 -0.000001 -0.000001 -0.000000 -0.000001 -0.000001 -0.000000 -0.000001 -0.000001 -0.000000 -0.000001 -0.000001 -0.000002 -0.000002 0.000000 -0.000000 -0.000002 0.000000 -0.000000 0.000000 0.000002 -0.000000 -0.000000 -0.000001 0.000000 
-2.457331 76.962158 0.971256 3.073810 -58.194626 6.454614 -0.000000 0.000000 -0.000000 -31.878801 10.683334 25.474888 44.396096 -9.166758 -10.034137 -14.556475 -2.358945 -8.872077 0.000000 0.000002 -0.000000 -0.000000 -0.000002 0.000001 0.000000 -0.000003 -0.000001 -29.545961 -9.374523 -26.689649 50.905437 3.498880 -7.790078 -25.466569 1.402754 21.862840 0.000000 -0.000000 -0.000000 0.000000 -0.000002 -0.000002 0.000003 0.000001 -0.000001 11.182284 0.139936 -2.614595 8.418541 0.098062 -5.435015 8.441001 0.098160 -5.434542 -20.687892 25.289875 11.929352 -0.113994 25.894261 -3.222225 0.000000 -0.000000 -0.000001 0.000000 -0.000000 -0.000001 0.000000 -0.000000 -0.000001 0.000000 -0.000000 -0.000001 0.000000 -0.000000 -0.000001 0.000000 -0.000000 -0.000001 0.000000 -0.000000 -0.000001 0.000000 -0.000000 -0.000001 0.000000 -0.000000 -0.000001 0.000000 -0.000000 -0.000001 0.000000 -0.000000 -0.000001 0.000000 -0.000000 -0.000001 0.000000 -0.000000 -0.000001 0.000000 -0.000000 -0.000001 0.000000 -0.000000 -0.000001 0.000000 -0.000000 -0.000001 0.000000 -0.000000 -0.000001 0.000000 -0.000000 -0.000001 0.000000 -0.000000 -0.000001 -5.908045 -11.406739 -4.124972 -23.202747 9.567580 -36.508369 -0.784472 -43.550082 0.142517 22.848559 -5.652437 16.178179 -0.879651 -7.742593 8.328706 2.373400 19.986109 -2.038338 -0.000000 0.000001 -0.000002 13.268571 -0.549100 10.431562 -0.182233 0.317235 -31.198942 0.000000 -0.000001 -0.000003 8.506220 0.092380 -0.917209 0.251016 0.632004 -29.949696 -0.000000 -0.000001 0.000002 6.117621 3.143161 -16.039670 0.080069 0.300789 -30.030115 0.000000 -0.000001 -0.000002 -5.752466 7.603033 -13.427852 0.244806 0.257161 -46.451543 -0.000003 -0.000000 -0.000001 -0.000000 -0.000000 -0.000001 -4.944353 10.745126 2.290180 -41.728132 -26.359933 29.303738 31.240121 112.174649 -29.235651 -7.457841 10.204596 -10.911862 0.253646 10.146828 -10.866898 1.389854 -17.409828 3.034319 -0.000001 -0.000001 0.000000 19.555670 10.849995 -14.310308 -0.109775 -0.315225 17.427305 0.000001 0.000002 -0.000000 4.395304 2.480622 -5.884558 0.341307 -0.463254 26.238716 -0.000000 0.000001 -0.000005 -7.253386 -10.295810 4.470737 0.111001 -0.090340 25.398060 0.000001 0.000001 0.000007 -19.678118 -19.367579 4.682566 0.206968 -0.083428 35.949324 0.000000 -0.000001 0.000000 0.000002 0.000003 -0.000002 -0.000002 0.000001 -0.000000 -0.000002 0.000001 -0.000000 -0.000002 0.000001 -0.000000 -0.000002 0.000001 -0.000000 -0.000002 0.000001 -0.000000 -0.000002 0.000001 0.000000 -0.000002 0.000001 0.000000 -0.000002 0.000001 0.000000 0.000000 -0.000001 0.000000 -0.000000 0.000000 -0.000000 
-2.440939 76.947891 0.960839 3.116809 -58.187952 6.462378 0.000000 0.000003 0.000000 -31.968584 10.664068 25.514452 44.455615 -9.195108 -10.019788 -14.560391 -2.355612 -8.872422 0.000000 0.000003 0.000000 -0.000001 -0.000002 0.000001 -0.000002 -0.000000 -0.000000 -29.584394 -9.336771 -26.651900 50.947173 3.486892 -7.788351 -25.478528 1.373974 21.934753 -0.000000 -0.000003 -0.000000 0.000000 -0.000000 0.000002 0.000002 -0.000000 -0.000000 11.206494 0.154411 -2.582288 8.467453 0.128434 -5.368929 8.489926 0.128553 -5.368456 -20.398454 25.378647 11.886852 -0.024567 26.120525 -3.255902 0.000000 -0.000000 -0.000000 0.000000 -0.000000 -0.000000 0.000000 -0.000000 -0.000000 0.000000 -0.000000 -0.000000 0.000000 -0.000000 -0.000000 0.000000 -0.000000 -0.000000 0.000000 -0.000000 -0.000000 0.000000 -0.000000 -0.000000 0.000000 -0.000000 -0.000000 0.000000 -0.000000 -0.000000 0.000000 -0.000000 -0.000000 0.000000 -0.000000 -0.000000 0.000000 -0.000000 -0.000000 0.000000 -0.000000 -0.000000 0.000000 -0.000000 -0.000000 0.000000 -0.000000 -0.000000 0.000000 -0.000000 -0.000000 0.000000 -0.000000 -0.000000 0.000000 -0.000000 -0.000000 -5.914308 -11.396601 -4.145970 -23.347103 9.645243 -36.446767 -1.115207 -43.763413 0.039104 22.975539 -5.590298 16.230215 -0.833034 -7.696158 8.471579 2.373405 19.986105 -2.038335 -0.000001 -0.000000 -0.000000 13.148560 -0.152159 10.582376 -0.181323 0.317225 -31.121976 0.000001 0.000001 0.000003 8.510353 0.379055 -0.790064 0.249857 0.632818 -29.887887 -0.000001 -0.000000 0.000002 6.301399 3.763332 -15.938170 0.079959 0.300743 -29.987485 -0.000001 0.000002 0.000003 -5.757964 7.590678 -13.381698 0.244372 0.257137 -46.375939 -0.000000 -0.000001 -0.000001 0.000000 0.000002 -0.000003 -4.707634 10.766309 2.133767 -41.787237 -26.098330 28.599059 29.847906 111.261179 -27.947326 -9.059277 9.227808 -12.053766 0.390468 9.767104 -10.996382 1.388966 -17.406073 3.036277 -0.000002 -0.000000 -0.000000 19.537107 10.750098 -14.301141 -0.109902 -0.315100 17.255144 0.000001 -0.000001 0.000003 4.410911 2.459023 -5.885793 0.340490 -0.463533 26.084943 0.000000 0.000003 -0.000003 -7.077111 -10.207425 4.534566 0.110989 -0.089777 25.313723 -0.000000 -0.000002 0.000001 -19.588561 -19.216765 4.827882 0.206847 -0.083257 35.913558 0.000001 0.000001 0.000001 0.000002 -0.000001 -0.000000 0.000002 -0.000001 0.000002 0.000002 -0.000001 0.000002 0.000002 -0.000001 0.000002 0.000002 -0.000001 0.000002 0.000002 -0.000001 0.000002 0.000002 -0.000001 0.000000 0.000002 -0.000001 0.000001 0.000002 -0.000001 0.000001 0.000001 0.000001 -0.000000 0.000000 0.000003 0.000000 
